<svg xmlns="http://www.w3.org/2000/svg" viewBox="100 70 885 110">
  <path fill="#f0f0f0" d="M 100 177 Z M 122.949219 72 L 222.398438 72 L 222.398438 177 L 192.699219 177 L 192.699219 99 L 149.800781 99 L 148.300781 127.5 C 146.050781 167.851562 137.800781 177.75 103.75 177.75 L 101.648438 177.75 L 101.648438 149.25 L 102.398438 149.25 C 116.199219 149.25 118.898438 144.601562 120.101562 121.800781 Z M 233.15625 177 Z M 302.003906 97.5 C 279.355469 97.5 270.054688 105.449219 270.054688 124.351562 L 270.054688 124.648438 C 270.054688 143.550781 279.355469 151.5 302.003906 151.5 L 302.304688 151.5 C 325.105469 151.5 334.40625 143.550781 334.40625 124.648438 L 334.40625 124.351562 C 334.40625 105.449219 325.105469 97.5 302.304688 97.5 Z M 302.003906 70.5 L 302.304688 70.5 C 344.304688 70.5 364.105469 88.050781 364.105469 124.351562 L 364.105469 124.648438 C 364.105469 160.949219 344.304688 178.5 302.304688 178.5 L 302.003906 178.5 C 260.15625 178.5 240.355469 160.949219 240.355469 124.648438 L 240.355469 124.351562 C 240.355469 88.050781 260.15625 70.5 302.003906 70.5 Z M 371.140625 177 Z M 382.09375 72 L 478.992188 72 L 478.992188 99 L 411.792969 99 L 411.792969 177 L 382.09375 177 Z M 479.6875 177 Z M 548.539062 97.5 C 525.886719 97.5 516.585938 105.449219 516.585938 124.351562 L 516.585938 124.648438 C 516.585938 143.550781 525.886719 151.5 548.539062 151.5 L 548.835938 151.5 C 571.636719 151.5 580.9375 143.550781 580.9375 124.648438 L 580.9375 124.351562 C 580.9375 105.449219 571.636719 97.5 548.835938 97.5 Z M 548.539062 70.5 L 548.835938 70.5 C 590.835938 70.5 610.636719 88.050781 610.636719 124.351562 L 610.636719 124.648438 C 610.636719 160.949219 590.835938 178.5 548.835938 178.5 L 548.539062 178.5 C 506.6875 178.5 486.886719 160.949219 486.886719 124.648438 L 486.886719 124.351562 C 486.886719 88.050781 506.6875 70.5 548.539062 70.5 Z M 612.988281 177 Z M 618.539062 72 L 725.9375 72 L 725.9375 99 L 687.089844 99 L 687.089844 177 L 657.386719 177 L 657.386719 99 L 618.539062 99 Z M 731.496094 177 Z M 742.59375 72 L 772.144531 72 L 772.144531 146.101562 L 812.792969 72 L 854.195312 72 L 854.195312 177 L 824.644531 177 L 824.644531 102.75 L 783.996094 177 L 742.59375 177 Z M 864.941406 177 Z M 875.890625 72 L 983.140625 72 L 983.140625 177 L 953.441406 177 L 953.441406 99 L 905.589844 99 L 905.589844 177 L 875.890625 177 Z M 875.890625 72"/>
</svg>
