<svg xmlns="http://www.w3.org/2000/svg" width="180" height="140" viewBox="0 0 180 140">
  <rect width="180" height="140" fill="#111C24"/>
  
  <g fill="#151f2a">
    <!-- The N logo centered at 0,0, scaled and rotated -->
    <!-- Row A (y≈0) -->
    <g transform="translate(0, 10) rotate(-30) scale(0.7) translate(-229, -205)">
      <path d="M 187.73 267.96 L 245.51 267.96 C 257.51 267.96 267.24 258.2 267.24 246.16 L 267.24 243.3 L 249.1 243.3 C 247.73 243.3 246.45 242.87 245.41 242.14 C 244.8 241.7 244.26 241.17 243.83 240.55 L 238.91 235.62 L 222.36 219.01 L 215.14 211.76 L 215.14 243.3 L 197 243.3 C 193.45 243.3 190.57 240.41 190.57 236.85 L 190.57 190.69 L 187.73 190.69 C 175.73 190.69 166 200.45 166 212.49 L 166 246.16 C 166 258.2 175.73 267.96 187.73 267.96 Z"/>
      <path d="M 271.02 142.01 L 213.23 142.01 C 201.23 142.01 191.5 151.77 191.5 163.81 L 191.5 166.67 L 209.64 166.67 C 211.17 166.67 212.59 167.2 213.69 168.11 C 214.04 168.39 214.36 168.71 214.64 169.05 L 236.46 190.96 L 243.6 198.12 L 243.6 166.66 L 261.73 166.66 C 265.29 166.66 268.17 169.55 268.17 173.12 L 268.17 219.28 L 271.01 219.28 C 283.01 219.28 292.74 209.52 292.74 197.47 L 292.74 163.8 C 292.74 151.76 283.01 142 271.01 142 Z"/>
    </g>
    
    <g transform="translate(140, 10) rotate(-30) scale(0.7) translate(-229, -205)">
      <path d="M 187.73 267.96 L 245.51 267.96 C 257.51 267.96 267.24 258.2 267.24 246.16 L 267.24 243.3 L 249.1 243.3 C 247.73 243.3 246.45 242.87 245.41 242.14 C 244.8 241.7 244.26 241.17 243.83 240.55 L 238.91 235.62 L 222.36 219.01 L 215.14 211.76 L 215.14 243.3 L 197 243.3 C 193.45 243.3 190.57 240.41 190.57 236.85 L 190.57 190.69 L 187.73 190.69 C 175.73 190.69 166 200.45 166 212.49 L 166 246.16 C 166 258.2 175.73 267.96 187.73 267.96 Z"/>
      <path d="M 271.02 142.01 L 213.23 142.01 C 201.23 142.01 191.5 151.77 191.5 163.81 L 191.5 166.67 L 209.64 166.67 C 211.17 166.67 212.59 167.2 213.69 168.11 C 214.04 168.39 214.36 168.71 214.64 169.05 L 236.46 190.96 L 243.6 198.12 L 243.6 166.66 L 261.73 166.66 C 265.29 166.66 268.17 169.55 268.17 173.12 L 268.17 219.28 L 271.01 219.28 C 283.01 219.28 292.74 209.52 292.74 197.47 L 292.74 163.8 C 292.74 151.76 283.01 142 271.01 142 Z"/>
    </g>

    <g transform="translate(-140, 10) rotate(-30) scale(0.7) translate(-229, -205)">
      <path d="M 187.73 267.96 L 245.51 267.96 C 257.51 267.96 267.24 258.2 267.24 246.16 L 267.24 243.3 L 249.1 243.3 C 247.73 243.3 246.45 242.87 245.41 242.14 C 244.8 241.7 244.26 241.17 243.83 240.55 L 238.91 235.62 L 222.36 219.01 L 215.14 211.76 L 215.14 243.3 L 197 243.3 C 193.45 243.3 190.57 240.41 190.57 236.85 L 190.57 190.69 L 187.73 190.69 C 175.73 190.69 166 200.45 166 212.49 L 166 246.16 C 166 258.2 175.73 267.96 187.73 267.96 Z"/>
      <path d="M 271.02 142.01 L 213.23 142.01 C 201.23 142.01 191.5 151.77 191.5 163.81 L 191.5 166.67 L 209.64 166.67 C 211.17 166.67 212.59 167.2 213.69 168.11 C 214.04 168.39 214.36 168.71 214.64 169.05 L 236.46 190.96 L 243.6 198.12 L 243.6 166.66 L 261.73 166.66 C 265.29 166.66 268.17 169.55 268.17 173.12 L 268.17 219.28 L 271.01 219.28 C 283.01 219.28 292.74 209.52 292.74 197.47 L 292.74 163.8 C 292.74 151.76 283.01 142 271.01 142 Z"/>
    </g>
    
    <g transform="translate(280, 10) rotate(-30) scale(0.7) translate(-229, -205)">
      <path d="M 187.73 267.96 L 245.51 267.96 C 257.51 267.96 267.24 258.2 267.24 246.16 L 267.24 243.3 L 249.1 243.3 C 247.73 243.3 246.45 242.87 245.41 242.14 C 244.8 241.7 244.26 241.17 243.83 240.55 L 238.91 235.62 L 222.36 219.01 L 215.14 211.76 L 215.14 243.3 L 197 243.3 C 193.45 243.3 190.57 240.41 190.57 236.85 L 190.57 190.69 L 187.73 190.69 C 175.73 190.69 166 200.45 166 212.49 L 166 246.16 C 166 258.2 175.73 267.96 187.73 267.96 Z"/>
      <path d="M 271.02 142.01 L 213.23 142.01 C 201.23 142.01 191.5 151.77 191.5 163.81 L 191.5 166.67 L 209.64 166.67 C 211.17 166.67 212.59 167.2 213.69 168.11 C 214.04 168.39 214.36 168.71 214.64 169.05 L 236.46 190.96 L 243.6 198.12 L 243.6 166.66 L 261.73 166.66 C 265.29 166.66 268.17 169.55 268.17 173.12 L 268.17 219.28 L 271.01 219.28 C 283.01 219.28 292.74 209.52 292.74 197.47 L 292.74 163.8 C 292.74 151.76 283.01 142 271.01 142 Z"/>
    </g>

    <!-- Row B (offset, y≈70) -->
    <g transform="translate(70, 80) rotate(-30) scale(0.7) translate(-229, -205)">
      <path d="M 187.73 267.96 L 245.51 267.96 C 257.51 267.96 267.24 258.2 267.24 246.16 L 267.24 243.3 L 249.1 243.3 C 247.73 243.3 246.45 242.87 245.41 242.14 C 244.8 241.7 244.26 241.17 243.83 240.55 L 238.91 235.62 L 222.36 219.01 L 215.14 211.76 L 215.14 243.3 L 197 243.3 C 193.45 243.3 190.57 240.41 190.57 236.85 L 190.57 190.69 L 187.73 190.69 C 175.73 190.69 166 200.45 166 212.49 L 166 246.16 C 166 258.2 175.73 267.96 187.73 267.96 Z"/>
      <path d="M 271.02 142.01 L 213.23 142.01 C 201.23 142.01 191.5 151.77 191.5 163.81 L 191.5 166.67 L 209.64 166.67 C 211.17 166.67 212.59 167.2 213.69 168.11 C 214.04 168.39 214.36 168.71 214.64 169.05 L 236.46 190.96 L 243.6 198.12 L 243.6 166.66 L 261.73 166.66 C 265.29 166.66 268.17 169.55 268.17 173.12 L 268.17 219.28 L 271.01 219.28 C 283.01 219.28 292.74 209.52 292.74 197.47 L 292.74 163.8 C 292.74 151.76 283.01 142 271.01 142 Z"/>
    </g>
    
    <g transform="translate(210, 80) rotate(-30) scale(0.7) translate(-229, -205)">
      <path d="M 187.73 267.96 L 245.51 267.96 C 257.51 267.96 267.24 258.2 267.24 246.16 L 267.24 243.3 L 249.1 243.3 C 247.73 243.3 246.45 242.87 245.41 242.14 C 244.8 241.7 244.26 241.17 243.83 240.55 L 238.91 235.62 L 222.36 219.01 L 215.14 211.76 L 215.14 243.3 L 197 243.3 C 193.45 243.3 190.57 240.41 190.57 236.85 L 190.57 190.69 L 187.73 190.69 C 175.73 190.69 166 200.45 166 212.49 L 166 246.16 C 166 258.2 175.73 267.96 187.73 267.96 Z"/>
      <path d="M 271.02 142.01 L 213.23 142.01 C 201.23 142.01 191.5 151.77 191.5 163.81 L 191.5 166.67 L 209.64 166.67 C 211.17 166.67 212.59 167.2 213.69 168.11 C 214.04 168.39 214.36 168.71 214.64 169.05 L 236.46 190.96 L 243.6 198.12 L 243.6 166.66 L 261.73 166.66 C 265.29 166.66 268.17 169.55 268.17 173.12 L 268.17 219.28 L 271.01 219.28 C 283.01 219.28 292.74 209.52 292.74 197.47 L 292.74 163.8 C 292.74 151.76 283.01 142 271.01 142 Z"/>
    </g>

    <g transform="translate(-70, 80) rotate(-30) scale(0.7) translate(-229, -205)">
      <path d="M 187.73 267.96 L 245.51 267.96 C 257.51 267.96 267.24 258.2 267.24 246.16 L 267.24 243.3 L 249.1 243.3 C 247.73 243.3 246.45 242.87 245.41 242.14 C 244.8 241.7 244.26 241.17 243.83 240.55 L 238.91 235.62 L 222.36 219.01 L 215.14 211.76 L 215.14 243.3 L 197 243.3 C 193.45 243.3 190.57 240.41 190.57 236.85 L 190.57 190.69 L 187.73 190.69 C 175.73 190.69 166 200.45 166 212.49 L 166 246.16 C 166 258.2 175.73 267.96 187.73 267.96 Z"/>
      <path d="M 271.02 142.01 L 213.23 142.01 C 201.23 142.01 191.5 151.77 191.5 163.81 L 191.5 166.67 L 209.64 166.67 C 211.17 166.67 212.59 167.2 213.69 168.11 C 214.04 168.39 214.36 168.71 214.64 169.05 L 236.46 190.96 L 243.6 198.12 L 243.6 166.66 L 261.73 166.66 C 265.29 166.66 268.17 169.55 268.17 173.12 L 268.17 219.28 L 271.01 219.28 C 283.01 219.28 292.74 209.52 292.74 197.47 L 292.74 163.8 C 292.74 151.76 283.01 142 271.01 142 Z"/>
    </g>
    
    <!-- Row C (same as A, y≈140 for seamless tile) -->
    <g transform="translate(0, 150) rotate(-30) scale(0.7) translate(-229, -205)">
      <path d="M 187.73 267.96 L 245.51 267.96 C 257.51 267.96 267.24 258.2 267.24 246.16 L 267.24 243.3 L 249.1 243.3 C 247.73 243.3 246.45 242.87 245.41 242.14 C 244.8 241.7 244.26 241.17 243.83 240.55 L 238.91 235.62 L 222.36 219.01 L 215.14 211.76 L 215.14 243.3 L 197 243.3 C 193.45 243.3 190.57 240.41 190.57 236.85 L 190.57 190.69 L 187.73 190.69 C 175.73 190.69 166 200.45 166 212.49 L 166 246.16 C 166 258.2 175.73 267.96 187.73 267.96 Z"/>
      <path d="M 271.02 142.01 L 213.23 142.01 C 201.23 142.01 191.5 151.77 191.5 163.81 L 191.5 166.67 L 209.64 166.67 C 211.17 166.67 212.59 167.2 213.69 168.11 C 214.04 168.39 214.36 168.71 214.64 169.05 L 236.46 190.96 L 243.6 198.12 L 243.6 166.66 L 261.73 166.66 C 265.29 166.66 268.17 169.55 268.17 173.12 L 268.17 219.28 L 271.01 219.28 C 283.01 219.28 292.74 209.52 292.74 197.47 L 292.74 163.8 C 292.74 151.76 283.01 142 271.01 142 Z"/>
    </g>
    
    <g transform="translate(140, 150) rotate(-30) scale(0.7) translate(-229, -205)">
      <path d="M 187.73 267.96 L 245.51 267.96 C 257.51 267.96 267.24 258.2 267.24 246.16 L 267.24 243.3 L 249.1 243.3 C 247.73 243.3 246.45 242.87 245.41 242.14 C 244.8 241.7 244.26 241.17 243.83 240.55 L 238.91 235.62 L 222.36 219.01 L 215.14 211.76 L 215.14 243.3 L 197 243.3 C 193.45 243.3 190.57 240.41 190.57 236.85 L 190.57 190.69 L 187.73 190.69 C 175.73 190.69 166 200.45 166 212.49 L 166 246.16 C 166 258.2 175.73 267.96 187.73 267.96 Z"/>
      <path d="M 271.02 142.01 L 213.23 142.01 C 201.23 142.01 191.5 151.77 191.5 163.81 L 191.5 166.67 L 209.64 166.67 C 211.17 166.67 212.59 167.2 213.69 168.11 C 214.04 168.39 214.36 168.71 214.64 169.05 L 236.46 190.96 L 243.6 198.12 L 243.6 166.66 L 261.73 166.66 C 265.29 166.66 268.17 169.55 268.17 173.12 L 268.17 219.28 L 271.01 219.28 C 283.01 219.28 292.74 209.52 292.74 197.47 L 292.74 163.8 C 292.74 151.76 283.01 142 271.01 142 Z"/>
    </g>

    <!-- Row above A for seamless tiling -->
    <g transform="translate(70, -60) rotate(-30) scale(0.7) translate(-229, -205)">
      <path d="M 187.73 267.96 L 245.51 267.96 C 257.51 267.96 267.24 258.2 267.24 246.16 L 267.24 243.3 L 249.1 243.3 C 247.73 243.3 246.45 242.87 245.41 242.14 C 244.8 241.7 244.26 241.17 243.83 240.55 L 238.91 235.62 L 222.36 219.01 L 215.14 211.76 L 215.14 243.3 L 197 243.3 C 193.45 243.3 190.57 240.41 190.57 236.85 L 190.57 190.69 L 187.73 190.69 C 175.73 190.69 166 200.45 166 212.49 L 166 246.16 C 166 258.2 175.73 267.96 187.73 267.96 Z"/>
      <path d="M 271.02 142.01 L 213.23 142.01 C 201.23 142.01 191.5 151.77 191.5 163.81 L 191.5 166.67 L 209.64 166.67 C 211.17 166.67 212.59 167.2 213.69 168.11 C 214.04 168.39 214.36 168.71 214.64 169.05 L 236.46 190.96 L 243.6 198.12 L 243.6 166.66 L 261.73 166.66 C 265.29 166.66 268.17 169.55 268.17 173.12 L 268.17 219.28 L 271.01 219.28 C 283.01 219.28 292.74 209.52 292.74 197.47 L 292.74 163.8 C 292.74 151.76 283.01 142 271.01 142 Z"/>
    </g>

    <g transform="translate(-70, -60) rotate(-30) scale(0.7) translate(-229, -205)">
      <path d="M 187.73 267.96 L 245.51 267.96 C 257.51 267.96 267.24 258.2 267.24 246.16 L 267.24 243.3 L 249.1 243.3 C 247.73 243.3 246.45 242.87 245.41 242.14 C 244.8 241.7 244.26 241.17 243.83 240.55 L 238.91 235.62 L 222.36 219.01 L 215.14 211.76 L 215.14 243.3 L 197 243.3 C 193.45 243.3 190.57 240.41 190.57 236.85 L 190.57 190.69 L 187.73 190.69 C 175.73 190.69 166 200.45 166 212.49 L 166 246.16 C 166 258.2 175.73 267.96 187.73 267.96 Z"/>
      <path d="M 271.02 142.01 L 213.23 142.01 C 201.23 142.01 191.5 151.77 191.5 163.81 L 191.5 166.67 L 209.64 166.67 C 211.17 166.67 212.59 167.2 213.69 168.11 C 214.04 168.39 214.36 168.71 214.64 169.05 L 236.46 190.96 L 243.6 198.12 L 243.6 166.66 L 261.73 166.66 C 265.29 166.66 268.17 169.55 268.17 173.12 L 268.17 219.28 L 271.01 219.28 C 283.01 219.28 292.74 209.52 292.74 197.47 L 292.74 163.8 C 292.74 151.76 283.01 142 271.01 142 Z"/>
    </g>

    <g transform="translate(210, -60) rotate(-30) scale(0.7) translate(-229, -205)">
      <path d="M 187.73 267.96 L 245.51 267.96 C 257.51 267.96 267.24 258.2 267.24 246.16 L 267.24 243.3 L 249.1 243.3 C 247.73 243.3 246.45 242.87 245.41 242.14 C 244.8 241.7 244.26 241.17 243.83 240.55 L 238.91 235.62 L 222.36 219.01 L 215.14 211.76 L 215.14 243.3 L 197 243.3 C 193.45 243.3 190.57 240.41 190.57 236.85 L 190.57 190.69 L 187.73 190.69 C 175.73 190.69 166 200.45 166 212.49 L 166 246.16 C 166 258.2 175.73 267.96 187.73 267.96 Z"/>
      <path d="M 271.02 142.01 L 213.23 142.01 C 201.23 142.01 191.5 151.77 191.5 163.81 L 191.5 166.67 L 209.64 166.67 C 211.17 166.67 212.59 167.2 213.69 168.11 C 214.04 168.39 214.36 168.71 214.64 169.05 L 236.46 190.96 L 243.6 198.12 L 243.6 166.66 L 261.73 166.66 C 265.29 166.66 268.17 169.55 268.17 173.12 L 268.17 219.28 L 271.01 219.28 C 283.01 219.28 292.74 209.52 292.74 197.47 L 292.74 163.8 C 292.74 151.76 283.01 142 271.01 142 Z"/>
    </g>
  </g>
</svg>
